<?xml version="1.0" encoding="utf-8"?>
<svg xmlns="http://www.w3.org/2000/svg"
     xmlns:xlink="http://www.w3.org/1999/xlink"
     width="16"
     height="16"
     viewBox="0 0 16 16">
  <style>
    use:not(:target) {
      display: none;
    }
    .icon-toolbar {
      fill: #4d4d4d;
    }
    .icon-toolbar.pressed {
      fill: #333333;
    }
  </style>

  <defs>
    <path id="shape-navigation-back-large" d="M14,6H6.5l3-3c0.4-0.4,0.4-1,0-1.4L8.7,0.7c-0.4-0.4-1-0.4-1.4,0L0.7,7.3 c-0.4,0.4-0.4,1,0,1.4l6.6,6.6c0.4,0.4,1,0.4,1.4,0l0.8-0.8c0.4-0.4,0.4-1.1,0-1.4l-3-3.1H14c0.6,0,1-0.2,1-0.8V7 C15,6.4,14.6,6,14,6z"/>
    <path id="shape-bookmark-outline" d="M8,3.6l1.5,2.9l3.3,0.6l-2.4,2.5l0.5,3.4L8,11.5L5.1,13l0.5-3.4L3.2,7.1l3.4-0.6L8,3.6 M8,0C7.7,0,7.4,0.2,7.2,0.7l-2,4.1 L0.9,5.5c-1,0.2-1.2,0.9-0.5,1.6l3.1,3.3L2.8,15c-0.1,0.6,0.2,1,0.7,1c0.2,0,0.4-0.1,0.6-0.2L8,13.7l3.9,2.1 c0.2,0.1,0.5,0.2,0.6,0.2c0.5,0,0.8-0.4,0.7-1.1l-0.7-4.6L15.6,7c0.7-0.7,0.4-1.4-0.5-1.6l-4.3-0.7l-2-4.1C8.6,0.2,8.3,0,8,0L8,0z" />
    <path id="shape-bookmark-filled" d="M8,0C7.7,0,7.4,0.2,7.2,0.7l-2,4.1L0.9,5.5c-1,0.2-1.2,0.9-0.5,1.6l3.1,3.3L2.8,15c-0.1,0.6,0.2,1,0.7,1 c0.2,0,0.4-0.1,0.6-0.2L8,13.7l3.9,2.1c0.2,0.1,0.5,0.2,0.6,0.2c0.5,0,0.8-0.4,0.7-1.1l-0.7-4.6L15.6,7c0.7-0.7,0.4-1.4-0.5-1.6 l-4.3-0.7l-2-4.1C8.6,0.2,8.3,0,8,0L8,0z"/>
    <path id="shape-dropdown-panel-indicator" fill-rule="evenodd" d="M13,15H3c-1.1,0-2-0.9-2-2V5c0-1.1,0.9-2,2-2h2l3-3l3,3h2c1.1,0,2,0.9,2,2v8C15,14.1,14.1,15,13,15z M4,5 C3.4,5,3,5.4,3,6s0.4,1,1,1s1-0.4,1-1S4.6,5,4,5z M4,8C3.4,8,3,8.4,3,9s0.4,1,1,1s1-0.4,1-1S4.6,8,4,8z M4,11c-0.6,0-1,0.4-1,1 s0.4,1,1,1s1-0.4,1-1S4.6,11,4,11z M13,5H6v2h7V5z M13,8H6v2h7V8z M13,11H6v2h7V11z"/>
<!--     <path id="shape-dropdown-panel-indicator" d="M12.5,2h-9C2.1,2,1,3.1,1,4.5v7C1,12.9,2.1,14,3.5,14h9c1.4,0,2.5-1.1,2.5-2.5v-7C15,3.1,13.9,2,12.5,2z M8,11L3.7,6.7l1-1 L8,9l3.4-3.4l1,1L8,11z"/> -->
  	<path id="shape-downloads" d="M14.6,9.1L9,14.6C8.8,14.9,8.4,15,8,15s-0.8-0.1-1.1-0.4L1.3,9.1C0.8,8.5,0.9,8,1.7,8H5V2c0-0.6,0.4-1,1-1h4 c0.6,0,1,0.4,1,1v6h3.2C15,8,15.2,8.5,14.6,9.1z"/>
  	<path id="shape-home" d="M0,8 l 8,-7 l 8,7 l -2,0 l -6,-5 l -6,5z M3,8 l 5,-4 l 5,4 l 0,7 l -4,0 l 0,-5 l -2,0 l 0,5 l -4,0z"/>
  	<g id="shape-menu">
    	<rect x="0" y="1" width="16" height="3" rx="1.5" ry="1.5" />
    	<rect x="0" y="6" width="16" height="3" rx="1.5" ry="1.5" />
    	<rect x="0" y="11" width="16" height="3" rx="1.5" ry="1.5" />
  	</g>
  	<g id="shape-newTab">
    	<rect x="3" y="7" width="10" height="2" />
    	<rect x="7" y="3" width="2" height="10" />
  	</g>
  </defs>

  <use id="navigation-back-large"             class="icon-toolbar"            xlink:href="#shape-navigation-back-large"/>
  <use id="navigation-back-large-pressed"     class="icon-toolbar pressed"    xlink:href="#shape-navigation-back-large"/>

  <use id="bookmark-outline"                  class="icon-toolbar"            xlink:href="#shape-bookmark-outline"/>
  <use id="bookmark-outline-pressed"          class="icon-toolbar pressed"    xlink:href="#shape-bookmark-outline"/>

  <use id="bookmark-filled"                   class="icon-toolbar"            xlink:href="#shape-bookmark-filled"/>
  <use id="bookmark-filled-pressed"           class="icon-toolbar pressed"    xlink:href="#shape-bookmark-filled"/>

  <use id="dropdown-panel-indicator"          class="icon-toolbar"            xlink:href="#shape-dropdown-panel-indicator"/>
  <use id="dropdown-panel-indicator-pressed"  class="icon-toolbar pressed"    xlink:href="#shape-dropdown-panel-indicator"/>

  <use id="downloads"                         class="icon-toolbar"            xlink:href="#shape-downloads"/>
  <use id="downloads-pressed"                 class="icon-toolbar pressed"    xlink:href="#shape-downloads"/>

  <use id="home"                              class="icon-toolbar"            xlink:href="#shape-home"/>
  <use id="home-pressed"                      class="icon-toolbar pressed"    xlink:href="#shape-home"/>

  <use id="menu"                              class="icon-toolbar"            xlink:href="#shape-menu"/>
  <use id="menu-pressed"                      class="icon-toolbar pressed"    xlink:href="#shape-menu"/>

  <use id="newTab"                            class="icon-toolbar"            xlink:href="#shape-newTab"/>
  <use id="newTab-pressed"                    class="icon-toolbar pressed"    xlink:href="#shape-newTab"/>
</svg>
