<?xml version="1.0" encoding="utf-8"?>
<!DOCTYPE svg PUBLIC "-//W3C//DTD SVG 1.1//EN" "http://www.w3.org/Graphics/SVG/1.1/DTD/svg11.dtd">

<svg version="1.1"
     id=""
     xmlns="http://www.w3.org/2000/svg"
     xmlns:xlink="http://www.w3.org/1999/xlink"
     x="0"
     y="0"
     width="32"
     height="32"
     viewBox="0 0 32 32">

  <defs>
    <linearGradient id="gradient-tab-active" x1="0%" y1="0%" x2="0%" y2="100%" spreadMethod="pad">
      <stop offset="0%" stop-color="#fafafa" stop-opacity="1"/>
      <stop offset="100%" stop-color="#f4f4f4" stop-opacity="1"/>
    </linearGradient>
    <linearGradient id="gradient-tab-active-02" x1="0%" y1="0%" x2="0%" y2="100%" spreadMethod="pad">
      <stop offset="0" stop-color="#000" stop-opacity=".3"/>
      <stop offset="90%" stop-color="#000" stop-opacity=".3"/>
      <stop offset="90%" stop-color="#000" stop-opacity="0"/>
    </linearGradient>
    <clipPath id="clipPath-tabCurve-background">
        <rect x="0" y="0" width="32" height="29" />
    </clipPath>
  </defs>

  <path d="m 0,32 0,-3 c 21,1.5 5.5,-28 29.5,-28 l 3,0 l 0,31 z" id="tabCurve-background" fill="#000" fill-opacity=".3" clip-path="url(#clipPath-tabCurve-background)" />

<!--   <path d="m 0,32 0,-3 c 21,1.5 5.5,-28 29,-28 l 3,0 l 0,31 z" id="tabCurve-background" fill="#000" fill-opacity=".3" /> -->
<!--   <path d="m 0,32 0,-3 c 21,1.5 5.5,-28 29,-28 l 3,0 l 0,31 z" id="tabCurve-background" fill="url('#gradient-tab-active-02')" /> -->
  <path d="m 0,32 0,-2 c 23,1   5.5,-28 30,-28 l 3,0 l 0,30 z" id="tabCurve-foreground" fill="url('#gradient-tab-active')" />
<!--
  <rect x="0" y="1" width="32" height="31" fill="blue" />
  <rect x="0" y="2" width="32" height="30" fill="green" />
-->

</svg>
