<?xml version="1.0" encoding="utf-8"?>
<!DOCTYPE svg PUBLIC "-//W3C//DTD SVG 1.1//EN" "http://www.w3.org/Graphics/SVG/1.1/DTD/svg11.dtd">

<svg version="1.1"
     id=""
     xmlns="http://www.w3.org/2000/svg"
     xmlns:xlink="http://www.w3.org/1999/xlink"
     x="0"
     y="0"
     width="32"
     height="32"
     viewBox="0 0 32 32">

  <defs>
    <linearGradient id="gradient-linear-mask" x1="20%" y1="0%" x2="100%" y2="0%">
      <stop offset="0%" stop-color="#000" stop-opacity="1"/>
      <stop offset="100%" stop-color="#fff" stop-opacity="1"/>
    </linearGradient>
    
    <mask x="0" y="0" width="32" height="32" id="tabCurve-foreground-mask">
      <rect x="0" y="0" width="32" height="32" fill="#fff" />
      <path d="m 0,32 0,-2 c 23,1   5.5,-28 30,-28 l 3,0 l 0,30 z" fill="#000" />
      <rect x="0" y="29" width="4" height="1" fill="url(#gradient-linear-mask)" />
    </mask>
  </defs>

  <g transform="translate(32,0), scale(-1,1)">
    <path d="m 0,32 0,-3 c 21,1.5 5.5,-28 29.5,-28 l 3,0 l 0,31 z" id="tabCurve-background" fill="#000" fill-opacity=".3" mask="url(#tabCurve-foreground-mask)" />
    <path d="m 0,32 0,-2 c 23,1   5.5,-28 30,-28 l 3,0 l 0,30 z" id="tabCurve-foreground" fill="#fff" fill-opacity=".5" />
  </g>

</svg>
