<?xml version="1.0" encoding="utf-8"?>
<!DOCTYPE svg PUBLIC "-//W3C//DTD SVG 1.1//EN" "http://www.w3.org/Graphics/SVG/1.1/DTD/svg11.dtd">

<svg version="1.1"
     id=""
     xmlns="http://www.w3.org/2000/svg"
     xmlns:xlink="http://www.w3.org/1999/xlink"
     x="0"
     y="0"
     width="16"
     height="16"
     viewBox="0 0 16 16">
       
  <defs>
    <!-- Gradients -->
    <linearGradient id="gradient-triangles-dark-edges" x1="0%" y1="0%" x2="0%" y2="100%" >
      <stop offset="0%" stop-color="#423122" stop-opacity="1" />
      <stop offset="100%" stop-color="#423122" stop-opacity=".5" />
    </linearGradient>
    
    <linearGradient id="gradient-triangles-dark-middle" x1="0%" y1="0%" x2="0%" y2="100%" >
      <stop offset="0%" stop-color="#452d18" stop-opacity="1" />
      <stop offset="100%" stop-color="#452d18" stop-opacity=".5" />
    </linearGradient>    
    
    <linearGradient id="gradient-cupcake-bottom" x1="0%" y1="0%" x2="0%" y2="100%" >
      <stop offset="0%" stop-color="#755936" stop-opacity="1" />
      <stop offset="100%" stop-color="#97784d" stop-opacity="1" />
    </linearGradient>    

    <linearGradient id="gradient-cupcake-top" x1="0%" y1="0%" x2="0%" y2="100%" >
      <stop offset="0%" stop-color="#522b14" stop-opacity="1" />
      <stop offset="100%" stop-color="#2c1a0f" stop-opacity="1" />
    </linearGradient>
    
    <linearGradient id="gradient-icing-base" x1="0%" y1="0%" x2="0%" y2="100%" >
      <stop offset="0%" stop-color="#ee00cf" stop-opacity="1" />
      <stop offset="100%" stop-color="#b4009c" stop-opacity="1" />
    </linearGradient>
    
    <linearGradient id="gradient-icing-tip-shadow" x1="0%" y1="0%" x2="0%" y2="100%" gradientTransform="rotate(45)" >
      <stop offset="0%" stop-color="#9b0087" stop-opacity="1" />
      <stop offset="100%" stop-color="#56004d" stop-opacity="1" />
    </linearGradient>

    <linearGradient id="gradient-icing-tip-highlight" x1="0%" y1="0%" x2="0%" y2="100%" gradientTransform="rotate(30)" >
      <stop offset="0%" stop-color="#ff8afb" stop-opacity="1" />
      <stop offset="100%" stop-color="#ed00ce" stop-opacity="1" />
    </linearGradient>

    <linearGradient id="gradient-icing-shadows" x1="0%" y1="0%" x2="0%" y2="100%" gradientTransform="rotate(30)" >
      <stop offset="0%" stop-color="#b00099" stop-opacity="1" />
      <stop offset="100%" stop-color="#80006f" stop-opacity="1" />
    </linearGradient>

    <linearGradient id="gradient-icing-highlights" x1="0%" y1="0%" x2="0%" y2="100%" gradientTransform="rotate(30)" >
      <stop offset="0%" stop-color="#ff6cfd" stop-opacity="1" />
      <stop offset="100%" stop-color="#ce00b3" stop-opacity="1" />
    </linearGradient>
  </defs>

  <polygon points="3,11 13,11 12,16 4,16" fill="url(#gradient-cupcake-bottom)" />
  
  <polygon points="3,11 5.5,11 4,16" fill="url(#gradient-triangles-dark-edges)" />
  <polygon points="10.5,11 13,11 12,16" fill="url(#gradient-triangles-dark-edges)" />

  <polygon points="5.5,11 7.5,11 6.5,16" fill="url(#gradient-triangles-dark-middle)" />
  <polygon points="8.5,11 10.5,11 9.5,16" fill="url(#gradient-triangles-dark-middle)" />

  <polygon points="3,11 13,11 12.5,12 3.5,12" fill="#1e120a" fill-opacity=".2" />

  <path d="M3,11c0,0-1,0-1-2c0-2,2-4,6-4s6,2,6,4c0,2-1,2-1,2H3z" fill="url(#gradient-cupcake-top)" />

  <path id="icing-base"          fill="url(#gradient-icing-base)" d="M14.8,7.8c0,0.1,0.1,0.2,0.1,0.3 c0,0.2-0.3,0.5-0.7,0.9c-0.5,0.4-1.2,0.6-1.7,0.6c0,0,0,0,0,0c-2,0.8-3.7,0.3-5.1-0.1C7.1,9.4,6.9,9.3,6.7,9.3 C5.7,9.6,5.8,9.5,5,9.7C4.1,9.9,3.8,9.8,3,9.6C2.3,9.5,2.1,9.4,1.7,9.2C1.4,9,1.5,8.9,1.3,8.4C1,7.8,1.5,7.5,1.6,7.5 C1.5,7.4,1.3,7.3,1.2,7.1C0.9,6.8,1,6.8,1.3,6.6c0.3-0.2,0.7-0.3,0.8-0.3C2.1,6.1,1.9,5.9,1.9,5.7C1.8,5.5,2,5.5,2.5,5.2 C2.9,5.1,3.2,5,3.4,5C3.2,4.8,3.1,4.6,3.1,4.4C3.1,4.1,3,4,3.5,3.8C4,3.6,4.3,3.6,4.8,3.5c0.1,0,0.3-0.1,0.3-0.1C5,3.4,5,3.3,5,3.3 C4.7,3,4.8,2.8,4.9,2.7c0.2-0.1,0.3-0.2,0.5-0.2c0-0.1,0-0.2,0.3-0.4c0.5-0.3,0.9-0.5,0.9-0.9c0-0.3-0.1-0.5-0.1-0.5S7.1,1,7.2,1.4 c0,0,0,0.1,0,0.2C7.5,1.4,7.6,1.2,7.6,1c0-0.4-0.2-1-0.2-1s0.8,0.5,1,1.3c0.1,0.2,0.1,0.4,0.1,0.5c0.1-0.1,0.1-0.2,0.1-0.3 c0.1-0.4-0.1-0.9-0.1-0.9s1.5,0.9,1.3,1.7c0,0,0.2-0.1,0.4-0.1c0.3-0.1,0.8,0.1,1,0.3c0,0.1,0.1,0.3,0.1,0.5 c0.1,0.1,0.2,0.2,0.2,0.4c0-0.1,0-0.1,0-0.1s0-0.1,0.2,0c0.1,0.1,0.2,0.2,0.3,0.4c0-0.1,0-0.1,0-0.1s1.2,0.2,1.6,0.7 c0.2,0.2,0.2,0.6,0.1,0.9c0.2,0.1,0.3,0.2,0.5,0.4c0.3,0.3,0.6,0.7,0.7,1.4C15,7.2,15,7.4,14.8,7.8z"/>
  <path id="icing-tip-shadow"    fill="url(#gradient-icing-tip-shadow)" d="M5.5,2.7c0,0-0.3-0.2,0.2-0.5 c0.5-0.3,0.9-0.5,0.9-0.9c0-0.3-0.1-0.5-0.1-0.5S7.1,1,7.2,1.4c0.1,0.4,0.1,0.9,0.1,0.9S7,2.6,6.6,2.6C6.3,2.6,5.5,2.7,5.5,2.7z"/>
  <path id="icing-top-highlight" fill="url(#gradient-icing-tip-highlight)" d="M6,2.7c0,0-0.3-0.1,0.5-0.6 C7.2,1.6,7.6,1.4,7.6,1S7.4,0,7.4,0s0.8,0.5,1,1.3c0.2,0.8,0,1.4,0,1.4S8.3,2.8,7.5,2.9C6.7,3,6,2.7,6,2.7z"/>
  <path id="icing-shadow-04"     fill="url(#gradient-icing-shadows)" d="M4.9,2.7c0.3-0.1,0.4-0.2,1-0.2 c0.6,0.1,1.2,0.2,1.8-0.1c0.6-0.2,0.8-0.5,1-1c0.1-0.4-0.1-0.9-0.1-0.9s2,1.1,1.1,2.1c-0.9,1-2.1,1.1-3.1,1C5.5,3.6,5.2,3.6,5,3.3 C4.7,3,4.8,2.8,4.9,2.7z"/>
  <path id="icing-highlight-03"  fill="url(#gradient-icing-highlights)" d="M3.7,5.3c0,0-0.6-0.5-0.6-0.8 C3.1,4.1,3,4,3.5,3.8C4,3.6,4.3,3.6,4.8,3.5c0.5-0.1,0.5-0.1,0.5-0.1s1.1,0.4,2.5,0.2c1.8-0.3,2.1-1.3,2.1-1.3s0.2-0.1,0.5-0.1 c0.3-0.1,0.8,0.1,1,0.3c0.1,0.3,0.4,1.1-1.1,1.9C8.8,5.3,6.9,5.6,5.7,5.6c-1.2,0-1.9-0.2-1.9-0.2L3.7,5.3z"/>
  <path id="icing-shadow-03"     fill="url(#gradient-icing-shadows)" d="M3.5,5c0,0-0.4,0-1,0.3S1.8,5.5,1.9,5.7 C2,5.9,2.2,6.2,2.3,6.5C2.3,6.8,2.5,7,2.9,7.1c0.5,0,2,0.3,4-0.4c2.1-0.7,3.4-1.3,4-2.1c0.3-0.4,0.5-0.8,0.6-1.1 C11.6,3.3,11.3,3,11.3,3s0,0.6-0.6,1c-0.6,0.5-1,0.8-2.7,1.2C6.5,5.7,4.9,5.6,4.3,5.5C3.8,5.4,3.8,5.3,3.8,5.3L3.5,5z"/>
  <path id="icing-highlight-02"  fill="url(#gradient-icing-highlights)" d="M2.2,6.3c0,0-0.5,0.1-0.9,0.3 C1,6.8,0.9,6.8,1.2,7.1c0.2,0.3,0.4,0.3,0.6,0.6C1.9,8,2,8.2,2.2,8.3c0.2,0.1,1.4,0.6,2.1,0.5c0.7-0.1,1.1-0.2,2.3-0.6 c1.2-0.4,2.1-0.8,3-1.2c0.8-0.4,1.8-0.8,2.1-1.6c0.4-0.8,0.6-1,0.5-1.5c-0.1-0.5-0.2-0.6-0.4-0.7c-0.2-0.1-0.2,0-0.2,0 s0,0.5-0.5,1.1c-0.7,0.9-1.4,1.4-3.8,2.2C5.1,7.3,3.4,7.2,2.9,7C2.4,6.9,2.6,7,2.5,6.8C2.3,6.6,2.2,6.3,2.2,6.3z"/>
  <path id="icing-shadow-01"     fill="url(#gradient-icing-shadows)" d="M11.6,9.7c0,0,0.3-0.1,0.8-0.1 c0.5,0,1.3-0.1,1.7-0.6c0.5-0.4,0.8-0.6,0.7-0.9c0-0.2-0.1-0.4-0.1-0.4s-0.4,0.7-1.2,1.1C12.9,9.1,11.6,9.7,11.6,9.7z"/>
  <path id="icing-highlight-01"  fill="url(#gradient-icing-highlights)" d="M5.1,9.6c0,0,0.8-0.5,2.2-0.1 c1.4,0.4,3.1,0.9,5.1,0.1c2-0.8,2.7-1.9,2.6-2.6c-0.1-0.7-0.4-1.1-0.7-1.4c-0.3-0.3-0.9-0.6-0.9-0.6s0.5,1.2-1,2.1 C10.8,7.9,8,8.6,6.8,8.9C5.6,9.2,5.1,9.6,5.1,9.6z"/>
  <path id="icing-shadow-02"     fill="url(#gradient-icing-shadows)" d="M1.6,7.5c0,0-0.6,0.3-0.3,0.9C1.5,8.9,1.4,9,1.7,9.2 C2.1,9.4,2.3,9.5,3,9.6c0.8,0.1,1.1,0.3,2,0.1c0.9-0.2,0.7,0,2.2-0.6c1.5-0.6,2.5-0.9,3.6-1.2c1-0.3,2.2-0.9,2.5-1.5s0.7-1.5,0.3-2 c-0.4-0.5-1.6-0.7-1.6-0.7s0.1,0.3,0.1,0.7c-0.1,0.3-0.2,0.9-0.5,1.3C11.3,6,11.2,6.2,9.2,7.2c-2,0.9-3.8,1.3-4.3,1.5 c-0.6,0.1-0.8,0.2-1.4,0C2.7,8.5,2.2,8.3,2.1,8.2C1.9,8.1,1.6,7.5,1.6,7.5z"/>

  <ellipse cx="8" cy="16" rx="5" ry=".5" fill="#000" fill-opacity=".2" />

 </svg>
